<?xml version="1.0" encoding="UTF-8" ?>
<svg xmlns="http://www.w3.org/2000/svg" xmlns:xlink="http://www.w3.org/1999/xlink" width="226pt" height="260pt" viewBox="0.00 0.00 226.50 260.00">
<g id="graph0" class="graph" transform="scale(1 1) rotate(0) translate(4 256)">
<title>%0</title>
<polygon fill="#ffffff" stroke="transparent" points="-4,4 -4,-256 222.4957,-256 222.4957,4 -4,4"/>
<!-- A -->
<g id="node1" class="node">
<title>A</title>
<ellipse fill="none" stroke="#000000" cx="171" cy="-234" rx="27" ry="18"/>
<text text-anchor="middle" x="171" y="-229.8" font-family="Times,serif" font-size="14.00" fill="#000000">A</text>
</g>
<!-- B -->
<g id="node2" class="node">
<title>B</title>
<ellipse fill="none" stroke="#000000" cx="99" cy="-162" rx="27" ry="18"/>
<text text-anchor="middle" x="99" y="-157.8" font-family="Times,serif" font-size="14.00" fill="#000000">B</text>
</g>
<!-- A&#45;&#45;B -->
<g id="edge1" class="edge">
<title>A--B</title>
<path fill="none" stroke="#000000" d="M155.7307,-218.7307C143.512,-206.512 126.4602,-189.4602 114.2473,-177.2473"/>
</g>
<!-- C -->
<g id="node3" class="node">
<title>C</title>
<ellipse fill="none" stroke="#000000" cx="171" cy="-162" rx="27" ry="18"/>
<text text-anchor="middle" x="171" y="-157.8" font-family="Times,serif" font-size="14.00" fill="#000000">C</text>
</g>
<!-- A&#45;&#45;C -->
<g id="edge2" class="edge">
<title>A--C</title>
<path fill="none" stroke="#000000" d="M171,-215.8314C171,-205 171,-191.2876 171,-180.4133"/>
</g>
<!-- E -->
<g id="node4" class="node">
<title>E</title>
<ellipse fill="none" stroke="#000000" cx="162" cy="-18" rx="27" ry="18"/>
<text text-anchor="middle" x="162" y="-13.8" font-family="Times,serif" font-size="14.00" fill="#000000">E</text>
</g>
<!-- A&#45;&#45;E -->
<g id="edge3" class="edge">
<title>A--E</title>
<path fill="none" stroke="#000000" d="M185.1229,-218.2844C193.2535,-208.1468 202.6901,-194.2347 207,-180 220.9096,-134.0596 223.3404,-117.133 207,-72 201.35,-56.3945 189.003,-42.1296 178.669,-32.1852"/>
</g>
<!-- D -->
<g id="node5" class="node">
<title>D</title>
<ellipse fill="none" stroke="#000000" cx="27" cy="-90" rx="27" ry="18"/>
<text text-anchor="middle" x="27" y="-85.8" font-family="Times,serif" font-size="14.00" fill="#000000">D</text>
</g>
<!-- B&#45;&#45;D -->
<g id="edge4" class="edge">
<title>B--D</title>
<path fill="none" stroke="#000000" d="M83.7307,-146.7307C71.512,-134.512 54.4602,-117.4602 42.2473,-105.2473"/>
</g>
<!-- F -->
<g id="node6" class="node">
<title>F</title>
<ellipse fill="none" stroke="#000000" cx="99" cy="-90" rx="27" ry="18"/>
<text text-anchor="middle" x="99" y="-85.8" font-family="Times,serif" font-size="14.00" fill="#000000">F</text>
</g>
<!-- B&#45;&#45;F -->
<g id="edge5" class="edge">
<title>B--F</title>
<path fill="none" stroke="#000000" d="M99,-143.8314C99,-133 99,-119.2876 99,-108.4133"/>
</g>
<!-- G -->
<g id="node7" class="node">
<title>G</title>
<ellipse fill="none" stroke="#000000" cx="171" cy="-90" rx="27" ry="18"/>
<text text-anchor="middle" x="171" y="-85.8" font-family="Times,serif" font-size="14.00" fill="#000000">G</text>
</g>
<!-- C&#45;&#45;G -->
<g id="edge7" class="edge">
<title>C--G</title>
<path fill="none" stroke="#000000" d="M171,-143.8314C171,-133 171,-119.2876 171,-108.4133"/>
</g>
<!-- F&#45;&#45;E -->
<g id="edge6" class="edge">
<title>F--E</title>
<path fill="none" stroke="#000000" d="M112.6701,-74.3771C123.2373,-62.3003 137.7961,-45.6616 148.3566,-33.5924"/>
</g>
</g>
</svg>